<svg width="50" height="50" viewBox="0 0 50 50" fill="none" xmlns="http://www.w3.org/2000/svg">
<path d="M47.9055 33.3624V26.3912L30.9466 15.6804L31.4733 6.51621V6.47334C31.4732 2.90391 28.5693 0 25 0C21.4307 0 18.5268 2.90391 18.5268 6.47334V6.51621L19.0535 15.6804L2.09453 26.3911V33.3623L19.715 27.195L20.2302 36.1576L15.539 41.8068V50L25 44.0871L34.4609 50V41.8069L29.7697 36.1577L30.2849 27.1951L47.9055 33.3624ZM27.2611 38.2408L31.2002 42.9842V44.1166L26.7283 41.3217L25 40.2416L23.2718 41.3217L18.7999 44.1166V42.9844L22.739 38.241L23.5595 37.2529L23.4857 35.9706L22.9706 27.008L22.7223 22.6877L18.6378 24.1173L5.35547 28.7662V28.1884L20.7948 18.4373L22.4192 17.4113L22.309 15.4932L21.788 6.42812C21.8122 4.67744 23.2437 3.26084 24.9999 3.26084C26.7561 3.26084 28.1876 4.67744 28.212 6.42812L27.691 15.4932L27.5808 17.4113L29.2052 18.4373L44.6445 28.1884V28.7662L31.3622 24.1172L27.2777 22.6876L27.0294 27.0079L26.5143 35.9705L26.4405 37.2528L27.2611 38.2408Z" fill="#1D2F52"/>
</svg>
