<svg width="50" height="50" viewBox="0 0 50 50" fill="none" xmlns="http://www.w3.org/2000/svg">
<g clip-path="url(#clip0_216_18)">
<path d="M48.0342 46.6498C45.933 46.3973 43.9516 45.434 42.4551 43.9375C42.1497 43.632 41.7355 43.4604 41.3035 43.4604C40.8715 43.4604 40.4574 43.6321 40.1519 43.9375C39.3447 44.7447 38.405 45.3765 37.391 45.8338L42.8149 31.5211C43.1295 30.6909 42.7212 29.7615 41.8968 29.4318L39.685 28.5471V21.1722C39.685 19.0544 38.3243 17.2477 36.4278 16.5713V11.4004C36.4278 8.70636 34.2262 6.51456 31.5202 6.51456H29.9132V4.88585C29.9133 2.1918 27.7118 0 25.0058 0C22.3237 0 20.1416 2.1918 20.1416 4.88585V6.51447H18.4912C15.8091 6.51447 13.6271 8.70627 13.6271 11.4003V16.5615C11.7324 17.2297 10.3698 19.0436 10.3698 21.1721V28.5295L8.11465 29.4316C7.29444 29.7597 6.88535 30.6818 7.19248 31.51L12.4745 45.7528C11.5255 45.3027 10.6446 44.6992 9.88262 43.9372C9.24669 43.3012 8.21543 43.3012 7.5794 43.9372C6.0752 45.4414 4.0833 46.4059 1.9707 46.6531C1.07733 46.7577 0.43788 47.5667 0.542372 48.4601C0.646865 49.3534 1.45624 49.9936 2.34931 49.8884C4.67744 49.616 6.89639 48.6949 8.73409 47.257C13.4364 50.8995 20.3068 50.9019 25.0133 47.2576C29.8045 51.0132 36.7018 50.8139 41.3 47.2566C43.1269 48.6861 45.3322 49.6056 47.6454 49.8836C48.5377 49.9911 49.3495 49.3542 49.4567 48.4611C49.5641 47.5682 48.9272 46.7572 48.0342 46.6498ZM23.3989 4.88585C23.3989 3.9878 24.1197 3.25723 25.0058 3.25723C25.9158 3.25723 26.6561 3.9878 26.6561 4.88585V6.51447H23.3989V4.88585V4.88585ZM16.8843 11.4004C16.8843 10.5024 17.6051 9.7718 18.4912 9.7718C19.8854 9.7718 30.1193 9.7718 31.5203 9.7718C32.4302 9.7718 33.1706 10.5024 33.1706 11.4004V16.2863H16.8843V11.4004ZM13.6271 21.1721C13.6271 20.2741 14.3479 19.5435 15.234 19.5435H15.2557H34.7775C35.6875 19.5435 36.4278 20.2741 36.4278 21.1721V27.2442L25.6411 22.9295C25.2635 22.7665 24.8203 22.7497 24.3753 22.9275C24.3737 22.9283 24.372 22.9288 24.3703 22.9295L13.6271 27.2268V21.1721V21.1721ZM26.1689 43.9374C25.5329 43.3014 24.5017 43.3014 23.8657 43.9374C21.8655 45.9375 19.0552 46.8618 16.3048 46.7138L10.7985 31.8664L23.3771 26.835V35.329C23.3771 36.2284 24.1063 36.9576 25.0057 36.9576C25.9051 36.9576 26.6343 36.2284 26.6343 35.329V26.835L37.2428 31.0785C37.3753 31.1551 37.5195 31.2132 37.6721 31.2503L39.2023 31.8623L33.5713 46.7214C30.8718 46.8262 28.1306 45.8991 26.1689 43.9374Z" fill="#1D2F52"/>
</g>
<defs>
<clipPath id="clip0_216_18">
<rect width="50" height="50" fill="white"/>
</clipPath>
</defs>
</svg>
