<svg width="50" height="50" viewBox="0 0 50 50" fill="none" xmlns="http://www.w3.org/2000/svg">
<path d="M45.9228 11.3982H35.1648C34.4907 11.3982 33.9441 11.9446 33.9441 12.6188V27.8853H32.6315V14.8175C32.6315 14.1434 32.0849 13.5969 31.4108 13.5969C30.7368 13.5969 30.1902 14.1434 30.1902 14.8175V16.4044H2.44127V14.8175C2.44127 14.1434 1.89467 13.5969 1.22063 13.5969C0.5466 13.5969 0 14.1434 0 14.8175V33.5194C0 34.1935 0.5466 34.74 1.22063 34.74H3.9778C4.49145 36.9498 6.47535 38.6018 8.8391 38.6018C11.2029 38.6018 13.1869 36.9498 13.7005 34.74H16.5376C17.0513 36.9498 19.0353 38.6018 21.3991 38.6018C23.7628 38.6018 25.7468 36.9498 26.2605 34.74H31.4107C32.0847 34.74 32.6313 34.1935 32.6313 33.5194V33.5037H33.944V33.5194C33.944 34.1935 34.4906 34.74 35.1647 34.74H37.0681C37.5818 36.9498 39.5658 38.6018 41.9295 38.6018C44.3288 38.6018 46.3376 36.9003 46.814 34.6408C48.6348 34.2331 50 32.6049 50 30.663V15.4753C50 13.2272 48.171 11.3982 45.9228 11.3982ZM41.9297 36.1606C40.5232 36.1606 39.3789 35.0162 39.3789 33.6098C39.3789 32.2034 40.5232 31.059 41.9297 31.059C43.3361 31.059 44.4804 32.2034 44.4804 33.6098C44.4804 35.0162 43.3361 36.1606 41.9297 36.1606ZM23.95 33.6098C23.95 35.0162 22.8056 36.1606 21.3992 36.1606C19.9928 36.1606 18.8484 35.0162 18.8484 33.6098C18.8484 32.2034 19.9928 31.059 21.3992 31.059C22.8056 31.059 23.95 32.2033 23.95 33.6098ZM11.39 33.6098C11.39 35.0162 10.2456 36.1606 8.83923 36.1606C7.43281 36.1606 6.28859 35.0162 6.28859 33.6098C6.28859 32.2034 7.43281 31.059 8.83923 31.059C10.2456 31.059 11.39 32.2033 11.39 33.6098ZM30.1902 25.4401H2.44127V18.8456H30.1902V25.4401ZM2.44127 27.8814H30.1902V32.2986H26.2153C25.638 30.1802 23.6981 28.6177 21.3992 28.6177C19.1002 28.6177 17.1604 30.1802 16.5831 32.2986H13.6552C13.0779 30.1802 11.138 28.6177 8.8391 28.6177C6.54016 28.6177 4.60045 30.1802 4.02309 32.2986H2.44127V27.8814ZM32.6315 30.3267H33.9441V31.0625H32.6315V30.3267ZM41.9297 28.6178C39.6307 28.6178 37.6909 30.1803 37.1135 32.2987H36.3854V27.8815H47.5587V30.663C47.5587 31.2878 47.2063 31.8313 46.69 32.1068C46.0508 30.0864 44.1587 28.6178 41.9297 28.6178ZM47.5587 19.6899H41.7279V17.1929H47.5587V19.6899ZM47.3877 14.7516H40.5074C39.8333 14.7516 39.2867 15.2981 39.2867 15.9722V20.9106C39.2867 21.5847 39.8333 22.1312 40.5074 22.1312H47.5589V25.4401H36.3855V13.8394H45.923C46.5648 13.8394 47.12 14.2121 47.3877 14.7516Z" fill="#1D2F52"/>
</svg>
